# AST/ASF file generated using VICON BodyLanguage
# -----------------------------------------------
:version 1.10
:name VICON
:units
  mass 1.0
  length 0.45
  angle deg
:documentation
   .ast/.asf automatically generated from VICON data using
   VICON BodyBuilder and BodyLanguage model FoxedUp or BRILLIANT.MOD
:root
   order TX TY TZ RX RY RZ
   axis XYZ
   position 0 0 0  
   orientation 0 -0 0 
:bonedata
  begin
     id 1 
     name lhipjoint
     direction 0.500677 -0.737119 0.453848 
     length 2.34727 
     axis 0 -0 0  XYZ
  end
  begin
     id 2 
     name lfemur
     direction 0.34202 -0.939693 0  
     length 7.53653  
     axis 0 -0 20  XYZ
    dof rx ry rz
    limits (-160.0 20.0)
           (-70.0 70.0)
           (-60.0 70.0)
  end
  begin
     id 3 
     name ltibia
     direction 0.34202 -0.939693 0   
     length 6.85572   
     axis 0 -0 20   XYZ
    dof rx
    limits (-10.0 170.0)
  end
  begin
     id 4 
     name lfoot
     direction 0.155313 -0.426718 0.890949   
     length 2.18324   
     axis -90 -1.13533e-015 20   XYZ
    dof rx rz
    limits (-45.0 90.0)
           (-70.0 20.0)
  end
  begin
     id 5 
     name ltoes
     direction 1.53474e-011 -4.21647e-011 1   
     length 1.06748   
     axis -90 -1.13533e-015 20   XYZ
    dof rx
    limits (-90.0 20.0)
  end
  begin
     id 6 
     name rhipjoint
     direction -0.632471 -0.659587 0.406111   
     length 2.62319  
     axis 0 -0 0  XYZ 
  end
  begin
     id 7 
     name rfemur
     direction -0.34202 -0.939693 0   
     length 7.21735   
     axis 0 -0 -20   XYZ
    dof rx ry rz
    limits (-160.0 20.0)
           (-70.0 70.0)
           (-70.0 60.0)
  end
  begin
     id 8 
     name rtibia
     direction -0.34202 -0.939693 0   
     length 7.02558   
     axis 0 -0 -20   XYZ
    dof rx
    limits (-10.0 170.0)
 end
 begin
     id 9 
     name rfoot
     direction -0.16057 -0.441164 0.882945   
     length 2.10014  
     axis -90 1.13533e-015 -20   XYZ
    dof rx rz
    limits (-45.0 90.0)
           (-20.0 70.0)
  end
  begin
     id 10 
     name rtoes
     direction -1.53553e-011 -4.2192e-011 1   
     length 1.02554   
     axis -90 1.13533e-015 -20   XYZ
    dof rx
    limits (-90.0 20.0)
  end
  begin
     id 11 
     name lowerback
     direction 0.0401429 0.998861 -0.0258085   
     length 1.80848   
     axis 0 -0 0   XYZ
    dof rx ry rz
    limits (-20.0 45.0)
           (-30.0 30.0)
           (-30.0 30.0)
  end
  begin
     id 12 
     name upperback
     direction -0.0130978 0.999914 -0.000352645   
     length 1.8116   
     axis 0 -0 0   XYZ
    dof rx ry rz
    limits (-20.0 45.0)
           (-30.0 30.0)
           (-30.0 30.0)
  end
  begin
     id 13 
     name thorax
     direction -0.0300198 0.999453 0.0138573   
     length 1.81778   
     axis 0 -0 0   XYZ
    dof rx ry rz
    limits (-20.0 45.0)
           (-30.0 30.0)
           (-30.0 30.0)
  end
  begin
     id 14 
     name lowerneck
     direction -0.0401726 0.999191 -0.00173647   
     length 2.10594   
     axis 0 -0 0   XYZ
    dof rx ry rz
    limits (-20.0 45.0)
           (-30.0 30.0)
           (-30.0 30.0)
  end
  begin
     id 15 
     name upperneck
     direction 0.0119835 0.998501 0.0534085   
     length 2.07325   
     axis 0 -0 0   XYZ
    dof rx ry rz
    limits (-20.0 45.0)
           (-30.0 30.0)
           (-30.0 30.0)
  end
  begin
     id 16
     name head
     direction 0.00628309 0.999826 0.0175921  
     length 2.15096  
     axis 0 -0 0   XYZ
    dof rx ry rz
    limits (-20.0 45.0)
           (-30.0 30.0)
           (-30.0 30.0)
  end
  begin
     id 17 
     name lclavicle
     direction 0.895501 0.429681 -0.115981  
     length 4.18092  
     axis 0 -0 0   XYZ
    dof ry rz
    limits (-20.0 10.0)
           (0.0 20.0)
  end
  begin
     id 18 
     name lhumerus
     direction 1 -4.48961e-011 -3.38433e-028   
     length 5.77237   
     axis 180 -30 -90   XYZ
    dof rx ry rz
    limits (-60.0 90.0)
           (-90.0 90.0)
           (-90.0 90.0)
  end
  begin
     id 19
     name lradius
     direction 1 -4.4901e-011 1.11983e-026   
     length 2.91878   
     axis 180 -30 -90   XYZ
    dof rx
    limits (-10.0 170.0)
  end
  begin
     id 20
     name lwrist
     direction 1 -4.48934e-011 1.88176e-026   
     length 1.45939   
     axis -1.23311e-014 90 90   XYZ
    dof ry
    limits (-180.0 0.0)
 end
  begin
     id 21 
     name lhand
     direction 1 -4.4895e-011 3.76352e-026   
     length 1.06566   
     axis -2.40147e-014 90 90   XYZ
    dof rx rz
    limits (-90.0 90.0)
           (-45.0 45.0)
  end
  begin
     id 22 
     name lfingers
     direction 1 -4.49005e-011 7.52705e-026   
     length 0.859162   
     axis -4.80295e-014 90 90   XYZ
    dof rx
    limits (0.0 90.0)
  end
  begin
     id 23
     name lthumb
     direction 0.707107 -6.34885e-011 0.707107   
     length 1.23359   
     axis -90 45 -9.86935e-015   XYZ
    dof rx rz
    limits (-45.0 45.0)
           (-45.0 45.0)
  end
  begin
     id 24 
     name rclavicle
     direction -0.91006 0.40451 -0.0903492   
     length 4.23293  
     axis 0 -0 0   XYZ 
    dof ry rz
    limits (-10.0 20.0)
           (-20.0 0.0)
  end
  begin
     id 25 
     name rhumerus
     direction -1 -4.4897e-011 1.7415e-027  
     length 5.49854   
     axis 180 30 90   XYZ
    dof rx ry rz
    limits (-90.0 60.0)
           (-90.0 90.0)
           (-90.0 90.0)
  end
  begin
     id 26 
     name rradius
     direction -1 -4.48963e-011 1.21259e-026   
     length 3.1186   
     axis 180 30 90   XYZ
    dof rx
    limits (-10.0 170.0)
  end
  begin
     id 27 
     name rwrist
     direction -1 -4.48967e-011 1.88176e-026   
     length 1.5593   
     axis -1.23311e-014 -90 -90   XYZ
    dof ry
    limits (-180.0 0.0)
  end
  begin
     id 28
     name rhand
     direction -1 -4.4895e-011 3.76352e-026   
     length 0.71207   
     axis -2.40147e-014 -90 -90   XYZ
    dof rx rz
    limits (-90.0 90.0)
           (-45.0 45.0)
  end
  begin
     id 29
     name rfingers
     direction -1 -4.49005e-011 7.52705e-026   
     length 0.574089   
     axis -4.80295e-014 -90 -90   XYZ
    dof rx
    limits (0.0 90.0)
  end
  begin
     id 30
     name rthumb
     direction -0.707107 -6.34982e-011 0.707107   
     length 0.824281   
     axis -90 -45 9.86935e-015   XYZ
    dof rx rz
    limits (-45.0 45.0)
           (-45.0 45.0)
  end
:hierarchy
  begin
    root lhipjoint rhipjoint lowerback
    lhipjoint lfemur
    lfemur ltibia
    ltibia lfoot
    lfoot ltoes
    rhipjoint rfemur
    rfemur rtibia
    rtibia rfoot
    rfoot rtoes
    lowerback upperback
    upperback thorax
    thorax lowerneck lclavicle rclavicle
    lowerneck upperneck
    upperneck head
    lclavicle lhumerus
    lhumerus lradius
    lradius lwrist
    lwrist lhand lthumb
    lhand lfingers
    rclavicle rhumerus
    rhumerus rradius
    rradius rwrist
    rwrist rhand rthumb
    rhand rfingers
  end

#!OML:ASF C:\ViconDB\ViconDB\414\Spring2016\042216\male.ASF
:FULLY-SPECIFIED
:DEGREES
481
root 9.19962 17.7302 9.44833 345.854 77.7309 704.954
lowerback 1.83587 -3.57678 3.45481
upperback -0.309637 -4.69338 -0.342549
thorax -1.65107 -2.3775 -2.11595
lowerneck 2.08405 16.6971 -1.52638
upperneck -12.2037 21.6711 -8.93653
head -3.47643 11.2382 -3.34614
rclavicle 5.20878e-014 0
rhumerus -25.2985 1.42265 -94.4372
rradius 25.5076
rwrist 34.5464
rhand 11.6181 -20.2497
rfingers 7.12502
rthumb 36.6594 -46.4014
lclavicle 5.20878e-014 0
lhumerus -28.0327 17.7082 80.9633
lradius 30.3651
lwrist -16.2745
lhand -11.0917 15.707
lfingers 7.12502
lthumb 14.9322 45.1488
rfemur -27.9389 9.73997 18.1034
rtibia 28.2601
rfoot -13.2843 -8.15068
rtoes -16.0556
lfemur 14.579 -2.77057 -20.8926
ltibia 3.18055e-014
lfoot -11.3029 18.944
ltoes -19.711
482
root 9.3234 17.7378 9.4553 347.991 78.192 706.965
lowerback 1.48363 -3.68732 3.33891
upperback -0.29323 -4.85706 -0.360138
thorax -1.43927 -2.4552 -2.08828
lowerneck 2.10951 16.7233 -1.46133
upperneck -12.1687 21.7181 -8.88242
head -3.46567 11.2567 -3.338
rclavicle 1.29676e-014 -3.57812e-015
rhumerus -25.6899 -0.517786 -93.206
rradius 25.1271
rwrist 34.8163
rhand 11.7623 -20.5739
rfingers 7.12502
rthumb 36.7959 -46.6909
lclavicle 1.29676e-014 -3.57812e-015
lhumerus -27.7419 16.8585 81.5787
lradius 30.0638
lwrist -16.4332
lhand -10.8509 15.723
lfingers 7.12502
lthumb 15.1641 45.1473
rfemur -28.4699 9.68382 17.3299
rtibia 28.0011
rfoot -12.353 -7.51719
rtoes -15.8409
lfemur 14.7711 -2.74699 -21.4051
ltibia 9.54166e-015
lfoot -11.217 18.3152
ltoes -20.0833
483
root 9.45144 17.7436 9.46317 349.885 78.5763 708.822
lowerback 1.16956 -3.75386 3.30891
upperback -0.228604 -4.95835 -0.33201
thorax -1.19835 -2.50109 -2.06462
lowerneck 2.20923 16.6918 -1.3435
upperneck -12.1471 21.6705 -9.05642
head -3.44339 11.239 -3.41125
rclavicle 1.17407e-015 1.19271e-015
rhumerus -26.136 -2.3882 -91.847
rradius 24.7623
rwrist 35.5552
rhand 11.8173 -20.5558
rfingers 7.12502
rthumb 36.8479 -46.6594
lclavicle 1.17407e-015 1.19271e-015
lhumerus -27.5406 16.3824 82.1926
lradius 29.8879
lwrist -17.3485
lhand -10.4736 15.5658
lfingers 7.12502
lthumb 15.5275 44.9624
rfemur -28.8197 9.64305 16.6449
rtibia 27.6198
rfoot -11.4821 -6.95399
rtoes -15.7382
lfemur 15.0895 -2.67081 -21.8619
ltibia 0
lfoot -10.8427 17.5226
ltoes -20.4503
484
root 9.56835 17.7481 9.46889 351.781 79.1758 710.566
lowerback 0.875773 -3.89046 3.28294
upperback -0.193734 -5.15135 -0.272303
thorax -1.00224 -2.59375 -2.00661
lowerneck 2.18876 16.7214 -1.28562
upperneck -12.1044 21.7134 -9.16214
head -3.40299 11.2639 -3.44271
rclavicle -1.30732e-014 3.18055e-015
rhumerus -26.5936 -4.59764 -90.3586
rradius 24.5048
rwrist 36.9723
rhand 12.2569 -20.3484
rfingers 7.12502
rthumb 37.2637 -46.3443
lclavicle -1.30732e-014 3.18055e-015
lhumerus -27.1592 15.8119 82.9096
lradius 29.6624
lwrist -17.866
lhand -10.1637 15.3717
lfingers 7.12502
lthumb 15.826 44.7449
rfemur -29.2193 9.45587 15.9455
rtibia 27.2365
rfoot -10.4986 -6.46021
rtoes -15.8404
lfemur 15.2177 -2.82958 -22.3133
ltibia 1.90833e-014
lfoot -10.1707 16.9097
ltoes -21.5634
485
root 9.69249 17.7589 9.48026 353.251 79.4677 711.88
lowerback 0.526145 -3.89675 3.42065
upperback -0.164011 -5.17145 -0.229874
thorax -0.785705 -2.60058 -2.06635
lowerneck 2.12804 16.7385 -1.27436
upperneck -11.9369 21.7623 -8.97679
head -3.35173 11.2757 -3.36802
rclavicle 3.29858e-014 -4.87022e-015
rhumerus -27.1 -6.58241 -89.0243
rradius 24.2015
rwrist 37.6299
rhand 12.2594 -20.4816
rfingers 7.12502
rthumb 37.266 -46.4768
lclavicle 3.29858e-014 -4.87022e-015
lhumerus -26.7861 15.3113 83.5644
lradius 29.3862
lwrist -18.2227
lhand -10.2644 15.3092
lfingers 7.12502
lthumb 15.729 44.69
rfemur -29.6117 9.92232 15.302
rtibia 26.8348
rfoot -9.65296 -6.41441
rtoes -15.8043
lfemur 15.3918 -2.7373 -22.4659
ltibia 6.04305e-014
lfoot -10.3108 15.929
ltoes -21.7785
486
root 9.81311 17.7572 9.49091 356.018 79.7499 714.651
lowerback 0.466637 -3.91402 3.221
upperback -0.152456 -5.19807 -0.194543
thorax -0.72113 -2.61178 -1.92497
lowerneck 1.85871 16.7714 -1.1844
upperneck -11.4486 21.8494 -8.83551
head -3.134 11.2973 -3.26231
rclavicle 4.38825e-014 1.26725e-015
rhumerus -27.8687 -8.67299 -87.5309
rradius 24.1938
rwrist 38.8523
rhand 12.5306 -20.2262
rfingers 7.12502
rthumb 37.5224 -46.1538
lclavicle 4.38825e-014 1.26725e-015
lhumerus -26.6351 14.8372 84.2067
lradius 29.4676
lwrist -18.8224
lhand -9.76628 15.1899
lfingers 7.12502
lthumb 16.2087 44.5323
rfemur -29.8917 10.3022 14.428
rtibia 26.4914
rfoot -8.75386 -6.30704
rtoes -15.8711
lfemur 15.6912 -2.60463 -22.9304
ltibia 6.04305e-014
lfoot -10.0602 15.1011
ltoes -21.9054
487
root 9.93882 17.751 9.50278 357.769 80.0354 716.312
lowerback 0.234146 -3.94691 3.29421
upperback -0.1319 -5.24972 -0.120088
thorax -0.572634 -2.63499 -1.90709
lowerneck 1.73387 16.8289 -0.969276
upperneck -11.0786 21.9549 -8.86022
head -2.95011 11.3352 -3.24667
rclavicle 3.56267e-014 1.88845e-015
rhumerus -28.5669 -9.23039 -86.5801
rradius 24.1785
rwrist 38.5092
rhand 12.4137 -20.587
rfingers 7.12502
rthumb 37.4119 -46.5439
lclavicle 3.56267e-014 1.88845e-015
lhumerus -26.3821 14.1354 84.8845
lradius 29.4628
lwrist -19.0901
lhand -9.60265 15.2569
lfingers 7.12502
lthumb 16.3663 44.5864
rfemur -30.2526 10.7894 13.7196
rtibia 26.2242
rfoot -8.02439 -6.33133
rtoes -15.3615
lfemur 15.9426 -2.50809 -23.1901
ltibia 5.725e-014
lfoot -9.83886 14.4969
ltoes -21.8078
488
root 10.0623 17.7432 9.5129 360.396 80.3595 718.872
lowerback 0.148338 -3.89397 3.40997
upperback -0.185603 -5.18093 -0.124259
thorax -0.586476 -2.60187 -1.98033
lowerneck 1.68994 16.7913 -0.945096
upperneck -10.7692 21.9262 -8.77003
head -2.84452 11.3103 -3.19126
rclavicle -6.46858e-014 -1.39149e-015
rhumerus -29.3842 -10.1022 -85.4519
rradius 24.1117
rwrist 38.2341
rhand 12.3656 -20.7136
rfingers 7.12502
rthumb 37.3664 -46.6825
lclavicle -6.46858e-014 -1.39149e-015
lhumerus -26.1214 13.2706 85.7179
lradius 29.3531
lwrist -19.1856
lhand -9.60018 15.5525
lfingers 7.12502
lthumb 16.3686 44.8818
rfemur -30.5739 10.4192 13.2456
rtibia 26.1252
rfoot -7.0743 -5.72203
rtoes -16.2227
lfemur 16.1875 -2.46418 -23.5605
ltibia -7.31528e-014
lfoot -9.50578 13.5364
ltoes -22.3362
489
root 10.1899 17.7332 9.53512 363.001 80.7288 721.481
lowerback -0.0593701 -3.86946 3.28044
upperback -0.128669 -5.15694 -0.0444856
thorax -0.391673 -2.58539 -1.84665
lowerneck 1.70862 16.7248 -0.950006
upperneck -10.6718 21.8463 -8.73968
head -2.82187 11.2693 -3.17558
rclavicle 1.06549e-013 5.96354e-015
rhumerus -30.14 -10.9664 -84.2732
rradius 24.1463
rwrist 38.4686
rhand 12.5513 -20.6945
rfingers 7.12502
rthumb 37.542 -46.6169
lclavicle 1.06549e-013 5.96354e-015
lhumerus -25.8856 11.7198 86.7331
lradius 29.5926
lwrist -18.546
lhand -9.42999 15.5614
lfingers 7.12502
lthumb 16.5325 44.8771
rfemur -30.877 11.6614 12.1789
rtibia 26.1158
rfoot -6.72485 -6.43238
rtoes -15.4291
lfemur 16.5392 -2.48384 -23.895
ltibia 7.95139e-014
lfoot -9.24823 12.8285
ltoes -23.2788
490
root 10.3186 17.7207 9.555 365.871 81.0939 724.322
lowerback -0.215475 -3.83625 3.1903
upperback -0.0994973 -5.11879 -0.00545829
thorax -0.260851 -2.56365 -1.77095
lowerneck 1.59407 16.6972 -0.847873
upperneck -10.3664 21.8394 -8.60444
head -2.70117 11.2504 -3.10898
rclavicle -6.50026e-014 -4.57205e-015
rhumerus -30.855 -11.4885 -83.3635
rradius 24.1029
rwrist 37.8765
rhand 12.4207 -21.065
rfingers 7.12502
rthumb 37.4185 -47.0202
lclavicle -6.50026e-014 -4.57205e-015
lhumerus -25.5791 10.8189 87.552
lradius 29.5976
lwrist -18.2048
lhand -9.54221 15.1745
lfingers 7.12502
lthumb 16.4244 44.4992
rfemur -31.1218 12.1772 11.3551
rtibia 26.0916
rfoot -6.40651 -6.39194
rtoes -15.4411
lfemur 16.8463 -2.52582 -24.2155
ltibia -8.26944e-014
lfoot -9.04256 12.0538
ltoes -23.9415
491
root 10.4517 17.7007 9.57681 368.717 81.3813 727.17
lowerback -0.325816 -3.8477 3.07815
upperback -0.0671974 -5.13802 0.0812358
thorax -0.149276 -2.57078 -1.63068
lowerneck 1.34441 16.7348 -0.753661
upperneck -9.97723 21.9243 -8.50056
head -2.5221 11.2758 -3.02866
rclavicle 4.21423e-014 -4.37326e-015
rhumerus -31.6679 -12.0403 -82.37
rradius 24.1405
rwrist 38.738
rhand 12.5655 -20.9227
rfingers 7.12502
rthumb 37.5553 -46.8416
lclavicle 4.21423e-014 -4.37326e-015
lhumerus -25.2915 10.3218 88.171
lradius 29.56
lwrist -18.7159
lhand -9.26901 14.6113
lfingers 7.12502
lthumb 16.6875 43.914
rfemur -31.351 13.5108 10.2739
rtibia 26.0832
rfoot -6.43389 -7.04101
rtoes -15.1918
lfemur 17.2602 -2.50644 -24.5164
ltibia 3.49861e-014
lfoot -8.88413 11.3728
ltoes -24.8818
492
root 10.59 17.6871 9.59617 371.735 81.764 730.14
lowerback -0.555203 -3.83678 3.18242
upperback -0.0801854 -5.13176 0.113035
thorax -0.040291 -2.56602 -1.67238
lowerneck 1.3464 16.6851 -0.603527
upperneck -9.68559 21.878 -8.46667
head -2.41239 11.2415 -3.01201
rclavicle 2.59414e-014 -2.78299e-015
rhumerus -32.5734 -12.6598 -81.3618
rradius 24.175
rwrist 39.0623
rhand 12.63 -20.7453
rfingers 7.12502
rthumb 37.6163 -46.6479
lclavicle 2.59414e-014 -2.78299e-015
lhumerus -25.169 9.06363 89.013
lradius 29.8415
lwrist -18.1899
lhand -9.13115 14.6818
lfingers 7.12502
lthumb 16.8202 43.9733
rfemur -31.5345 15.0285 9.11601
rtibia 26.0626
rfoot -6.69568 -7.70331
rtoes -14.0004
lfemur 17.5843 -2.61054 -24.7552
ltibia -3.18055e-015
lfoot -8.8564 10.5931
ltoes -25.3847
493
root 10.7286 17.6664 9.6171 374.211 82.1516 732.63
lowerback -0.597523 -3.85642 3.22232
upperback -0.10503 -5.15833 0.281503
thorax -0.0315169 -2.57871 -1.52489
lowerneck 1.18556 16.708 -0.634043
upperneck -9.33316 21.9352 -8.33398
head -2.28198 11.2578 -2.9236
rclavicle -2.00524e-014 -2.78299e-015
rhumerus -33.4075 -12.7441 -80.432
rradius 24.2651
rwrist 39.3978
rhand 13.1699 -20.7367
rfingers 7.12502
rthumb 38.1263 -46.5014
lclavicle -2.00524e-014 -2.78299e-015
lhumerus -25.0641 8.19493 89.8848
lradius 30.143
lwrist -17.9016
lhand -9.00515 14.8089
lfingers 7.12502
lthumb 16.9415 44.09
rfemur -31.5128 15.5934 8.54945
rtibia 26.0428
rfoot -6.76452 -7.43679
rtoes -14.3521
lfemur 18.0084 -2.7104 -24.8942
ltibia -3.18055e-014
lfoot -8.80515 9.94697
ltoes -26.0847
494
root 10.8709 17.6422 9.63929 378.353 82.4518 736.739
lowerback -0.790646 -3.82039 3.18025
upperback -0.161742 -5.11602 0.321248
thorax 0.0276622 -2.55709 -1.47345
lowerneck 1.30754 16.6422 -0.408541
upperneck -9.06809 21.8638 -8.32999
head -2.19223 11.212 -2.94051
rclavicle -8.4235e-015 -8.74653e-015
rhumerus -34.3244 -13.122 -79.4687
rradius 24.2847
rwrist 39.6746
rhand 13.5792 -20.6197
rfingers 7.12502
rthumb 38.5127 -46.2776
lclavicle -8.4235e-015 -8.74653e-015
lhumerus -25.0705 7.25517 90.7096
lradius 30.5329
lwrist -17.3727
lhand -8.96361 14.7684
lfingers 7.12502
lthumb 16.9815 44.0461
rfemur -31.5063 16.0483 7.79212
rtibia 26.0002
rfoot -6.76919 -6.81848
rtoes -14.3455
lfemur 18.3749 -2.79602 -25.2517
ltibia -1.90833e-014
lfoot -8.80507 9.35878
ltoes -26.6561
